PathFileType	4	(X/Y/Z)	RBDS03\RBDS03runT35.trc
DataRate	CameraRate	NumFrames	NumMarkers	Units	OrigDataRate	OrigDataStartFrame	OrigNumFrames
150.000000	150.000000	5	33	mm	150.000000	2250	4500
Frame#	Time	L.ASIS			L.Heel.Bottom			L.Heel.Lateral			L.Heel.Top			L.Iliac.Crest			L.MT1			L.MT5			L.PSIS			L.Shank.Bottom.Lateral			L.Shank.Bottom.Medial			L.Shank.Top.Lateral			L.Shank.Top.Medial			L.Thigh.Bottom.Lateral			L.Thigh.Bottom.Medial			L.Thigh.Top.Lateral			L.Thigh.Top.Medial			R.ASIS			R.ASY			R.Heel.Bottom			R.Heel.Lateral			R.Heel.Top			R.Iliac.Crest			R.MT1			R.MT5			R.PSIS			R.Shank.Bottom.Lateral			R.Shank.Bottom.Medial			R.Shank.Top.Lateral			R.Shank.Top.Medial			R.Thigh.Bottom.Lateral			R.Thigh.Bottom.Medial			R.Thigh.Top.Lateral			R.Thigh.Top.Medial			
		X1	Y1	Z1	X2	Y2	Z2	X3	Y3	Z3	X4	Y4	Z4	X5	Y5	Z5	X6	Y6	Z6	X7	Y7	Z7	X8	Y8	Z8	X9	Y9	Z9	X10	Y10	Z10	X11	Y11	Z11	X12	Y12	Z12	X13	Y13	Z13	X14	Y14	Z14	X15	Y15	Z15	X16	Y16	Z16	X17	Y17	Z17	X18	Y18	Z18	X19	Y19	Z19	X20	Y20	Z20	X21	Y21	Z21	X22	Y22	Z22	X23	Y23	Z23	X24	Y24	Z24	X25	Y25	Z25	X26	Y26	Z26	X27	Y27	Z27	X28	Y28	Z28	X29	Y29	Z29	X30	Y30	Z30	X31	Y31	Z31	X32	Y32	Z32	X33	Y33	Z33	

2251	15	2342.420059984937	988.4672550555152	1014.941175640644	1849.265521166646	602.3920437514432	1039.764155429689	1844.112149060124	570.3625297485461	989.683733000602	1889.033425726432	570.9383037641954	1035.82757894363	2283.993320990923	1054.879020679408	959.8207594421233	1772.82015752276	385.3764820884891	1062.533597339705	1771.056564764863	431.4256607983995	962.3406383590672	2168.056682083987	1023.245690560725	1058.091538924373	1948.663753652967	507.5877736103063	974.2423931453933	1951.440831941517	544.7212719102376	1014.509667400605	2028.325601921379	511.6099598890282	964.9240281219463	2031.734839204788	548.8268100221932	1003.711930807979	2305.336427205953	546.8243754964258	960.3866515903211	2243.691830702677	547.5478716817616	1000.172835168324	2294.924198565133	654.9310071356035	942.4300975110125	2231.225692152553	654.1619116803212	971.7316745915016	2319.123036088663	1009.62087877766	1224.024917944479	21932958965.08033	-575912626.5346099	-1912039193.673431	2177.598073389767	36.33802094622773	1110.55829061489	2214.218632432089	56.6533184743666	1156.896799879065	2191.213780645238	83.85487840150645	1108.530788310188	2258.528337468632	1069.7373795228	1263.694384681173	2392.718192831188	45.44394294550688	1075.79122837135	2368.426253820277	39.16310564819504	1188.645661605975	2157.969876064244	1030.63640035511	1140.227890118809	2273.600423025838	151.3964396706474	1171.567089298302	2237.297780241953	172.226311420286	1140.655066993826	2290.184564035505	229.85559860591	1200.396131673495	2253.40126865485	247.8279254789059	1165.405718071894	2365.528132185056	600.8493733910062	1257.511034581939	2307.200142426262	578.5899124268274	1219.846882840231	2313.390720394831	697.0482313559597	1279.21017334108	2259.20458682536	675.0769802024769	1243.923561149337	
2252	15.00666666666667	2338.865081237937	983.7884594657299	1015.087970208793	1862.50678371084	599.6039456337085	1037.553267014007	1859.983602832283	566.8137107088495	987.8984980356005	1903.028148167411	569.0255813975997	1035.704654723911	2279.116213399504	1048.84720085824	959.6370253980155	1789.715115359632	381.5019808243926	1061.207335852215	1791.180830349482	425.9577753870474	960.0900570363621	2164.884012488317	1019.240097064304	1058.417226177437	1964.851158416648	504.6212570167887	974.266056752815	1967.758194049831	542.3904005844989	1013.920183342564	2044.497596211141	508.5443997855474	964.5302965417624	2048.06667500661	546.3504587030702	1002.770508060415	2319.232285974569	545.5975658640634	959.3004265378773	2256.912720823991	543.7832548474495	998.0403111398375	2304.685818305225	653.2087883151539	941.200480685823	2240.468162871704	649.7669989454326	969.3777465060623	2316.182213603588	1005.084970390495	1224.198523129231	21968739860.85823	-576850624.0133026	-1915157182.581705	2154.885049961605	37.32790988665099	1109.887889034037	2191.464589537733	58.0849987775611	1156.053898361315	2168.71528402391	84.76860285599766	1107.289921046194	2256.501991940137	1062.534994749276	1264.452061141596	2369.656245116148	45.98188610482826	1075.938793180745	2345.278003214491	40.38599183966608	1188.180195982644	2154.942834714086	1026.527296247406	1140.133986241108	2254.811230114522	151.9107852805061	1169.913913818503	2218.951033197732	174.1237646136802	1139.398764304568	2274.71064400923	229.5692429444233	1198.785415106817	2238.218090596859	248.9811729278302	1164.182662439516	2359.92616884301	596.3540508120815	1256.450538177119	2301.689525503374	574.9290726072061	1218.109995083113	2308.499464343986	692.8923075003825	1278.4085590329	2254.431511585492	671.6612555874566	1242.527828038249	
2253	15.01333333333333	2335.577210880819	980.080849367319	1015.305962311548	1874.860552350254	595.5429763890095	1035.564281568542	1875.130859414819	562.0549229683455	986.40569052715	1916.275758091489	566.1584682586587	1035.728599838597	2274.375883386098	1044.079890803785	959.6699098158753	1807.445946717153	375.9739180884925	1060.316803591467	1811.625927529474	418.921400379554	958.3359977275547	2161.997117762745	1016.198291275414	1058.753942255169	1980.793208065691	501.0538184635988	974.5194961519118	1983.561821412539	539.5390248529137	1013.459357645447	2060.371448903525	505.3761345743537	964.3466360126102	2063.849436806041	543.8528171451347	1001.937987018508	2333.069017839343	545.8970966571978	958.4189624715042	2270.277742554188	541.5425952544891	996.2350312180898	2314.372447428056	652.831364705035	940.0902550072126	2249.869847801238	646.7552769853515	967.3833000139483	2313.505674115893	1001.295127764305	1224.586438250265	22004559650.22143	-577789639.4128252	-1918278559.342147	2131.959707842863	38.03261267167937	1109.402000670118	2168.468376980408	59.13116310295125	1155.472015546504	2145.85024311429	85.42379528913202	1106.454295020641	2254.155954729744	1056.307250836554	1265.239580862208	2346.346281012961	46.75170776951991	1076.259731737584	2321.979473517421	41.45224239532936	1187.853004080745	2152.24512012141	1023.304202811954	1140.090405705806	2235.0943766048	152.335908772933	1168.684713894924	2199.77260192685	175.7786090500007	1138.429106389002	2258.033903559084	229.1655280364272	1197.440313824782	2221.927309561986	249.8473339110681	1163.126342232949	2352.898223714464	591.895660549227	1255.213847316798	2294.601081538548	571.5314551605051	1216.338978144298	2302.683092837009	689.0093248990108	1277.350674645608	2248.583143110084	668.7475502805997	1240.98708565688	
2254	15.02	2332.660974002839	977.4174351036361	1015.567542961417	1886.301896851887	590.1233174470802	1033.965220621181	1889.457863910179	556.1048899539661	985.318598882865	1928.727010893258	562.2595899550051	1035.965092280431	2269.986634850241	1040.730642033117	959.8636883170652	1826.018773808251	368.8010033625046	1059.817051364922	1832.257175217611	410.4821010538542	957.0883357785134	2159.475087542297	1014.160634048299	1059.091694440719	1996.397149817708	496.9156906476167	975.0109424672165	1998.741440756737	536.1723778102103	1013.15065666875	2075.840220682614	502.152303069977	964.3770364534294	2078.952983987772	541.3580147773112	1001.232083252171	2346.689957574668	547.7020288097224	957.7588509633885	2283.62783761585	540.8325804600473	994.7762329071792	2323.868128902674	653.782650828238	939.1186754936713	2259.314132131305	645.144992623502	965.774651761944	2311.18690612804	998.3095847259519	1225.146829136316	22040418354.297	-578729673.2851989	-1921403325.794293	2108.778837436066	38.50767884832384	1109.082718178245	2145.221381414347	59.83688397344179	1155.119975135226	2122.636240464151	85.8805321065233	1105.977490120308	2251.539700378628	1051.23934214421	1265.989099971599	2322.82807638031	47.53179510123444	1076.662201080984	2298.536293620346	42.25669325152867	1187.622451658977	2149.958282951688	1021.006907576986	1140.115321773197	2214.50502694701	152.6511526115194	1167.83710136262	2179.790180494218	177.176091026988	1137.720505168971	2240.212165924144	228.6506555453855	1196.349250131562	2204.54938499082	250.4400803006536	1162.245484445391	2344.536758042535	587.5660069397949	1253.880246608439	2285.986078904472	568.4613264408345	1214.707937274564	2296.052717660941	685.4808291687045	1276.122117973721	2241.72744723919	666.3967285266328	1239.467275933913	
2255	15.02666666666667	2330.197645068989	975.8385908092501	1015.843739723767	1896.859857856244	583.261915485725	1032.898570405574	1902.925849914635	548.9690305733201	984.7268335742559	1940.38235420375	557.2463260933652	1036.472162153164	2266.147171859136	1038.870303420884	960.1510099204617	1845.440683351594	360.0388849402863	1059.662031153056	1852.976932001593	400.8079583796596	956.3402297831135	2157.37450394346	1013.13414479692	1059.428587609721	2011.597515670828	492.2298200745802	975.7470794332581	2013.222716671645	532.2778542290483	1013.026332735197	2090.819151424194	498.9013468948405	964.6255914013989	2093.276061029264	538.8613338912558	1000.680444914137	2359.941240568011	550.9524081180037	957.327126145642	2296.794758827343	541.6182103754849	993.6659910500058	2333.061792525476	656.0160525873941	938.3039867882336	2268.67383774255	644.9183370079588	964.5586665912417	2309.298750932528	996.1569685755123	1225.822105051729	22076315994.21201	-579670726.1824446	-1924531483.77768	2085.326701505931	38.87243813684777	1108.897583853355	2121.736094734526	60.31300232433876	1154.953519881069	2099.117394385561	86.25750386363146	1105.794520286715	2248.790074904211	1047.470906233966	1266.643197788613	2299.137971936791	48.17620342391352	1077.067870742984	2274.947462176364	42.76588418441172	1187.450120062556	2148.139481858079	1019.644927927389	1140.227763789609	2193.141345172112	152.9169917508735	1167.307928842569	2159.075227540875	178.3853742844059	1137.229204029675	2221.355225916304	228.1082449278469	1195.482253276193	2186.15812952566	250.8543261914547	1161.529634553478	2334.988385027428	583.4961503541278	1252.532673814482	2275.970975901121	565.8165416454386	1213.367252015909	2288.744001836783	682.4097606074915	1274.81583939199	2233.977115177571	664.6823927692872	1238.120952890198	
